<svg xmlns="http://www.w3.org/2000/svg" xmlns:xlink="http://www.w3.org/1999/xlink" width="1920" zoomAndPan="magnify" viewBox="0 0 1440 809.999993" height="1080" preserveAspectRatio="xMidYMid meet" version="1.0"><defs><clipPath id="a9f78ea75f"><path d="M 539.25 315.742188 L 900.75 315.742188 L 900.75 539.976562 L 539.25 539.976562 Z M 539.25 315.742188 " clip-rule="nonzero"/></clipPath><clipPath id="ecd3cc2d1c"><path d="M 603.105469 423 L 672.671875 423 L 672.671875 539.976562 L 603.105469 539.976562 Z M 603.105469 423 " clip-rule="nonzero"/></clipPath><clipPath id="dcb533c97c"><path d="M 585.109375 455.164062 L 652.25 455.164062 L 652.25 539.976562 L 585.109375 539.976562 Z M 585.109375 455.164062 " clip-rule="nonzero"/></clipPath><clipPath id="f4ab0252ef"><path d="M 570.054688 421.914062 L 619.71875 421.914062 L 619.71875 539.976562 L 570.054688 539.976562 Z M 570.054688 421.914062 " clip-rule="nonzero"/></clipPath><clipPath id="960bb3147a"><path d="M 647.058594 415 L 677.863281 415 L 677.863281 539.976562 L 647.058594 539.976562 Z M 647.058594 415 " clip-rule="nonzero"/></clipPath></defs><g clip-path="url(#a9f78ea75f)"><path fill="#ff8e61" d="M 884.914062 458.296875 C 879.117188 452.90625 871.71875 449.996094 865.726562 444.914062 C 859.554688 439.671875 857.707031 432.296875 856.847656 424.625 C 854.867188 406.890625 853.359375 388.769531 844.710938 372.617188 C 837.121094 358.441406 825.582031 344.039062 812.269531 335.304688 C 797.597656 325.671875 781.871094 320.277344 763.429688 317.414062 C 727.136719 311.777344 691.328125 321.078125 661.304688 339.566406 C 646.214844 348.859375 632.285156 359.875 618.867188 371.390625 C 616.507812 373.414062 613.929688 376.496094 610.449219 376.070312 C 608.652344 375.851562 607.007812 374.855469 605.453125 373.976562 C 603.796875 373.027344 602.121094 372.179688 600.316406 371.554688 C 593 369.03125 584.964844 369.902344 578.023438 372.796875 C 562.550781 379.253906 550.199219 395.878906 546.105469 411.386719 C 541.332031 429.46875 539.199219 441.179688 539.25 465.578125 C 539.300781 488.125 541.269531 514.402344 556.246094 533.503906 C 559.46875 537.613281 564.421875 539.976562 569.636719 539.976562 L 856.492188 539.976562 C 862.046875 539.976562 867.558594 538.855469 872.621094 536.566406 C 872.652344 536.550781 872.683594 536.539062 872.714844 536.523438 C 886.996094 530.046875 897.390625 517.472656 900.097656 501.78125 C 902.832031 485.941406 896.828125 469.363281 884.914062 458.296875 " fill-opacity="1" fill-rule="nonzero"/></g><path fill="#212333" d="M 646.605469 390.136719 C 645.675781 388.113281 644.496094 386.28125 644.539062 383.972656 C 644.582031 381.832031 645.34375 379.785156 645.609375 377.675781 C 646.148438 373.40625 643.738281 369.839844 642.453125 365.949219 C 641.050781 361.714844 642.046875 357.15625 640.722656 352.90625 C 639.707031 349.648438 637.664062 346.714844 634.976562 344.617188 C 628.96875 339.929688 620.113281 340.390625 614.609375 345.574219 C 614.601562 345.578125 614.597656 345.578125 614.589844 345.582031 C 608.320312 349.429688 604.839844 356.453125 604.277344 363.652344 C 604.117188 365.707031 604.175781 367.777344 604.414062 369.824219 C 604.664062 371.933594 605.210938 373.976562 605.589844 376.0625 C 606.019531 378.417969 605.824219 380.609375 605.136719 382.894531 C 604.519531 384.941406 603.773438 386.9375 603.273438 389.023438 C 602.214844 393.46875 601.914062 398.070312 602.347656 402.613281 C 601.976562 402.949219 601.71875 403.410156 601.644531 404.019531 C 601.621094 404.226562 601.9375 404.222656 601.960938 404.019531 C 602.019531 403.566406 602.167969 403.214844 602.382812 402.945312 C 602.398438 403.082031 602.410156 403.21875 602.425781 403.355469 C 602.449219 403.558594 602.769531 403.5625 602.746094 403.355469 C 602.71875 403.121094 602.699219 402.886719 602.679688 402.65625 C 604.066406 401.589844 607.050781 402.496094 608.496094 402.632812 C 610.808594 402.847656 613.136719 402.703125 615.445312 402.503906 C 620.230469 402.085938 624.992188 401.410156 629.71875 400.5625 C 634.410156 399.722656 639.09375 398.753906 643.722656 397.617188 C 645.320312 397.226562 646.777344 396.566406 647.273438 394.867188 C 647.742188 393.273438 647.277344 391.59375 646.605469 390.136719 " fill-opacity="1" fill-rule="nonzero"/><g clip-path="url(#ecd3cc2d1c)"><path fill="#516978" d="M 671.230469 524.257812 C 669.851562 515.535156 667.777344 506.941406 666.1875 498.253906 C 664.632812 489.765625 663.742188 481.191406 662.964844 472.605469 C 662.175781 463.820312 661.46875 455.011719 660.121094 446.285156 C 659.453125 441.960938 658.625 437.65625 657.558594 433.410156 C 656.648438 429.800781 655.773438 425.667969 652.894531 423.070312 C 652.191406 424.351562 651.484375 425.628906 650.78125 426.90625 C 648.96875 430.195312 647.160156 433.484375 645.347656 436.769531 C 643.867188 439.457031 642.410156 442.207031 640.613281 444.703125 C 640.945312 447.296875 641.226562 449.898438 641.460938 452.503906 C 640.878906 453.429688 640.304688 454.359375 639.730469 455.289062 C 635.382812 462.359375 631.292969 469.585938 627.484375 476.960938 C 622.382812 486.835938 617.769531 496.96875 613.671875 507.296875 C 611.617188 512.484375 609.6875 517.722656 607.894531 523.003906 C 606.003906 528.570312 604.257812 534.199219 603.117188 539.96875 C 603.117188 539.972656 603.117188 539.972656 603.117188 539.976562 L 672.414062 539.976562 C 672.558594 539.023438 672.605469 538.050781 672.589844 537.128906 C 672.542969 532.832031 671.90625 528.492188 671.230469 524.257812 " fill-opacity="1" fill-rule="nonzero"/></g><g clip-path="url(#dcb533c97c)"><path fill="#212333" d="M 652.085938 539.976562 L 621.234375 539.976562 C 621.1875 534.347656 621.234375 532.488281 621.164062 526.019531 C 621.164062 526.019531 617.761719 535.824219 616.296875 539.976562 L 585.140625 539.976562 C 585.761719 534.15625 586.582031 528.355469 587.609375 522.59375 C 589.757812 510.542969 592.78125 498.652344 596.660156 487.046875 C 598.550781 481.386719 600.632812 475.929688 603.808594 470.851562 C 606.890625 465.921875 610.347656 461.210938 613.6875 456.457031 C 613.585938 456.378906 613.617188 456.164062 613.789062 456.148438 C 613.828125 456.144531 613.871094 456.144531 613.910156 456.140625 C 614.042969 455.949219 614.179688 455.757812 614.3125 455.566406 C 614.4375 455.386719 614.726562 455.558594 614.601562 455.734375 C 614.515625 455.855469 614.433594 455.980469 614.347656 456.101562 C 614.84375 456.054688 615.34375 456.011719 615.839844 455.96875 C 623.785156 455.296875 631.761719 455.070312 639.730469 455.289062 C 641.402344 455.332031 643.070312 455.398438 644.742188 455.484375 C 644.820312 455.488281 644.882812 455.535156 644.90625 455.609375 C 646.699219 461.949219 648.035156 468.410156 649.003906 474.929688 C 650.707031 486.34375 651.328125 497.894531 651.613281 509.425781 C 651.863281 519.605469 651.859375 529.792969 652.085938 539.976562 " fill-opacity="1" fill-rule="nonzero"/></g><path fill="#b9643c" d="M 652.65625 409.355469 C 652.402344 408.902344 652.15625 408.449219 651.921875 407.996094 C 651.464844 407.125 649.523438 402.652344 649.066406 401.269531 C 648.621094 399.9375 648.238281 398.574219 647.914062 397.207031 C 647.671875 396.164062 647.589844 394.863281 646.832031 394.035156 C 646.625 393.804688 646.367188 393.621094 646.082031 393.46875 C 645.324219 393.046875 644.363281 392.824219 643.632812 392.542969 C 642.378906 392.0625 641.128906 391.585938 639.875 391.109375 C 639.640625 391.015625 639.402344 390.925781 639.167969 390.835938 C 638.738281 390.671875 638.308594 390.507812 637.878906 390.34375 C 637.691406 390.273438 637.507812 390.203125 637.320312 390.132812 C 636.835938 389.945312 636.351562 389.761719 635.867188 389.578125 C 635.324219 389.371094 634.78125 389.164062 634.238281 388.957031 C 634.03125 388.875 633.816406 388.789062 633.601562 388.699219 C 632.332031 388.164062 630.984375 387.515625 629.65625 387.355469 C 628.175781 387.175781 626.609375 387.914062 625.222656 388.34375 C 623.640625 388.828125 622.054688 389.316406 620.46875 389.804688 C 620.523438 389.730469 620.574219 389.65625 620.625 389.582031 C 620.746094 389.402344 620.457031 389.234375 620.335938 389.414062 C 619.640625 390.449219 618.792969 391.382812 617.859375 392.238281 C 616.914062 393.113281 615.875 393.914062 614.8125 394.664062 C 613.703125 395.457031 612.570312 396.203125 611.488281 396.941406 C 609.625 398.207031 607.726562 399.417969 605.796875 400.566406 C 605.304688 400.867188 604.804688 401.152344 604.308594 401.4375 C 603.371094 401.984375 602.429688 402.507812 601.476562 403.019531 C 599.996094 403.816406 598.265625 404.453125 596.976562 405.550781 C 595.789062 406.5625 595.511719 407.992188 595.660156 409.484375 C 596.015625 412.984375 597.492188 416.371094 599.027344 419.496094 C 600.722656 422.933594 602.605469 426.265625 604.25 429.726562 C 604.496094 430.242188 604.734375 430.757812 604.972656 431.273438 C 605.140625 431.636719 605.308594 432.003906 605.472656 432.371094 C 606.75 435.1875 607.929688 438.046875 609.011719 440.9375 C 610.40625 444.65625 611.632812 448.433594 612.722656 452.253906 C 612.871094 452.78125 612.988281 453.371094 613.539062 453.617188 C 614.261719 453.9375 615.324219 453.71875 616.089844 453.707031 C 618.207031 453.675781 620.332031 453.648438 622.449219 453.613281 C 627.140625 453.542969 631.832031 453.476562 636.519531 453.402344 C 638.863281 453.367188 641.207031 453.332031 643.550781 453.300781 C 643.839844 453.292969 644.519531 453.398438 644.949219 453.246094 C 645.152344 453.238281 645.355469 453.230469 645.558594 453.21875 C 645.632812 453.21875 645.703125 453.171875 645.722656 453.101562 C 647.347656 446.949219 648.976562 440.796875 650.609375 434.648438 C 650.789062 433.960938 650.972656 433.273438 651.15625 432.585938 C 651.800781 430.144531 652.445312 427.703125 653.09375 425.261719 C 653.328125 424.382812 653.558594 423.503906 653.789062 422.625 C 653.957031 421.996094 654.125 421.359375 654.292969 420.730469 C 654.660156 419.351562 655.113281 417.960938 655.253906 416.539062 C 655.519531 413.828125 653.925781 411.597656 652.65625 409.355469 " fill-opacity="1" fill-rule="nonzero"/><path fill="#b9643c" d="M 641.617188 358.5625 C 640.933594 356.488281 637.222656 348.828125 635.742188 347.316406 C 633.035156 344.550781 629.683594 343.136719 625.875 344.160156 C 618.496094 346.144531 613.328125 353.503906 612.722656 360.644531 C 612.519531 363.015625 612.738281 365.460938 613.089844 367.8125 C 613.425781 370.070312 616.117188 371.316406 617.492188 373.191406 C 619.960938 376.550781 621.839844 379.546875 625.511719 381.476562 C 625.621094 381.53125 625.722656 381.457031 625.746094 381.367188 C 629.792969 382.949219 634.851562 383.113281 638.898438 380.921875 C 642.515625 378.964844 643.441406 375.191406 643.773438 371.386719 C 644.160156 366.949219 643.007812 362.785156 641.617188 358.5625 " fill-opacity="1" fill-rule="nonzero"/><path fill="#b9643c" d="M 631.761719 397.8125 C 631.730469 398.242188 631.699219 398.675781 631.671875 399.105469 C 631.65625 399.363281 631.742188 399.660156 631.472656 399.800781 C 631.398438 399.839844 631.007812 399.777344 630.886719 399.769531 C 629.808594 399.710938 628.734375 399.65625 627.65625 399.597656 C 625.648438 399.492188 623.640625 399.386719 621.632812 399.28125 C 621.191406 399.257812 620.75 399.234375 620.3125 399.210938 C 619.953125 399.191406 619.222656 399.3125 619.019531 398.988281 C 618.949219 398.867188 619.097656 398.253906 619.113281 398.109375 C 619.136719 397.914062 619.15625 397.71875 619.175781 397.523438 C 619.238281 396.9375 619.300781 396.351562 619.363281 395.765625 C 619.574219 393.761719 619.789062 391.761719 620 389.761719 C 620.480469 385.222656 620.964844 380.6875 621.445312 376.152344 C 626.039062 376 630.617188 375.5625 635.160156 374.839844 C 633.46875 382.402344 632.324219 390.085938 631.761719 397.8125 " fill-opacity="1" fill-rule="nonzero"/><path fill="#212333" d="M 629.546875 365.15625 C 630.105469 366.433594 629.976562 367.726562 629.261719 368.039062 C 628.542969 368.355469 627.507812 367.574219 626.949219 366.296875 C 626.386719 365.019531 626.515625 363.726562 627.234375 363.414062 C 627.949219 363.097656 628.984375 363.878906 629.546875 365.15625 " fill-opacity="1" fill-rule="nonzero"/><path fill="#212333" d="M 637.777344 360.804688 C 638.292969 362.101562 638.117188 363.386719 637.386719 363.675781 C 636.660156 363.964844 635.652344 363.148438 635.140625 361.851562 C 634.628906 360.550781 634.804688 359.265625 635.53125 358.976562 C 636.257812 358.691406 637.265625 359.507812 637.777344 360.804688 " fill-opacity="1" fill-rule="nonzero"/><path fill="#542814" d="M 636.136719 364.703125 C 635.773438 364 635.070312 363.582031 634.429688 363.167969 C 633.4375 362.523438 632.441406 361.894531 631.394531 361.347656 C 631.210938 361.25 631.050781 361.527344 631.234375 361.621094 C 632.601562 362.339844 634.160156 363.152344 635.316406 364.1875 C 636.9375 365.632812 635.613281 367.621094 634.546875 368.917969 C 634.417969 369.078125 634.644531 369.304688 634.773438 369.144531 C 635.753906 367.949219 636.964844 366.308594 636.136719 364.703125 " fill-opacity="1" fill-rule="nonzero"/><path fill="#b9643c" d="M 634.105469 367.179688 C 633.410156 367.414062 632.925781 367.949219 632.46875 368.496094 C 632.335938 368.65625 632.5625 368.882812 632.695312 368.722656 C 633.113281 368.222656 633.554688 367.703125 634.191406 367.488281 C 634.382812 367.421875 634.300781 367.113281 634.105469 367.179688 " fill-opacity="1" fill-rule="nonzero"/><g clip-path="url(#f4ab0252ef)"><path fill="#f4e3d2" d="M 619.359375 431.394531 C 619.191406 429.824219 618.953125 428.265625 618.695312 426.710938 C 618.46875 425.382812 618.488281 423.191406 617.171875 422.441406 C 616.027344 421.789062 614.371094 422.03125 613.109375 422.046875 C 611.617188 422.066406 610.125 422.101562 608.628906 422.148438 C 603.90625 422.292969 599.183594 422.582031 594.480469 422.996094 C 593.0625 430.128906 591.265625 437.1875 589.421875 444.226562 C 585.175781 460.433594 581.25 476.699219 577.972656 493.136719 C 574.886719 508.660156 572.292969 524.285156 570.195312 539.976562 L 596.660156 539.976562 C 597.023438 539.082031 597.277344 538.089844 597.550781 537.234375 C 597.972656 535.921875 598.34375 534.59375 598.671875 533.253906 C 600.027344 527.714844 600.667969 522.042969 601.417969 516.402344 C 602.164062 510.765625 603.136719 505.175781 604.34375 499.621094 C 606.800781 488.28125 610.066406 477.144531 613.15625 465.964844 C 613.925781 463.171875 614.589844 459.96875 615.324219 457.164062 C 615.464844 456.632812 615.703125 456.503906 615.839844 455.96875 C 616.4375 453.667969 617.011719 451.359375 617.5625 449.046875 C 618.941406 443.21875 619.988281 437.402344 619.359375 431.394531 " fill-opacity="1" fill-rule="nonzero"/></g><path fill="#3e3c57" d="M 639.753906 454.898438 C 639.746094 454.691406 639.429688 454.691406 639.433594 454.898438 C 639.472656 456.476562 639.515625 458.058594 639.554688 459.640625 C 639.574219 460.484375 639.597656 461.324219 639.617188 462.167969 C 639.628906 462.589844 639.640625 463.011719 639.652344 463.433594 C 639.65625 463.636719 639.777344 464.191406 639.675781 464.382812 C 639.421875 464.859375 637.589844 464.835938 637.042969 464.902344 C 636.316406 464.988281 635.589844 465.070312 634.863281 465.148438 C 633.25 465.316406 631.636719 465.457031 630.019531 465.570312 C 623.707031 466.019531 617.371094 466.046875 611.058594 465.671875 C 610.851562 465.65625 610.851562 465.980469 611.058594 465.992188 C 620.679688 466.5625 630.335938 466.175781 639.886719 464.851562 C 639.953125 464.84375 640.003906 464.761719 640.003906 464.695312 C 639.917969 461.429688 639.835938 458.164062 639.753906 454.898438 " fill-opacity="1" fill-rule="nonzero"/><path fill="#542814" d="M 637.125 371.304688 C 636.347656 372.671875 634.449219 373.292969 632.976562 373.378906 C 632.773438 373.390625 632.773438 373.710938 632.976562 373.699219 C 634.570312 373.605469 636.5625 372.9375 637.402344 371.464844 C 637.503906 371.289062 637.230469 371.125 637.125 371.304688 " fill-opacity="1" fill-rule="nonzero"/><path fill="#f2bc57" d="M 652.65625 409.355469 C 652.402344 408.902344 652.15625 408.449219 651.921875 407.996094 C 651.464844 407.125 647.855469 403.179688 646.558594 401.980469 C 645.347656 400.851562 644.210938 399.652344 643.148438 398.386719 C 642.523438 397.636719 641.921875 396.855469 641.347656 396.0625 C 640.035156 394.234375 639.042969 392.253906 637.878906 390.34375 C 637.691406 390.273438 637.507812 390.203125 637.320312 390.132812 C 636.835938 389.945312 636.351562 389.761719 635.867188 389.578125 C 635.324219 389.371094 634.78125 389.164062 634.238281 388.957031 C 634.03125 388.875 633.816406 388.789062 633.601562 388.699219 C 633.558594 392.042969 630.320312 394.519531 627.070312 394.832031 C 623.757812 395.15625 620.695312 393.828125 617.859375 392.238281 C 616.914062 393.113281 615.875 393.914062 614.8125 394.664062 C 617.191406 406.1875 614.738281 418.511719 608.375 428.386719 C 607.484375 429.769531 606.515625 431.101562 605.472656 432.371094 C 606.75 435.1875 612.441406 456.839844 612.992188 457.082031 C 613.714844 457.40625 644.808594 456.695312 645.007812 456.6875 C 645.082031 456.6875 645.152344 456.640625 645.171875 456.566406 C 646.800781 450.417969 653.558594 423.503906 653.789062 422.625 C 653.957031 421.996094 654.125 421.359375 654.292969 420.730469 C 654.660156 419.351562 655.113281 417.960938 655.253906 416.539062 C 655.519531 413.828125 653.925781 411.597656 652.65625 409.355469 " fill-opacity="1" fill-rule="nonzero"/><path fill="#f4e3d2" d="M 617.859375 392.238281 C 616.167969 393.351562 613.683594 394.824219 611.113281 396.335938 C 607.964844 398.195312 604.691406 400.101562 602.621094 401.464844 C 602.605469 401.476562 602.585938 401.484375 602.570312 401.5 C 600.71875 402.710938 598.75 403.847656 597.074219 405.296875 C 595.511719 406.648438 594.457031 408.355469 593.839844 410.324219 C 592.703125 413.925781 593.5 418.378906 593.175781 422.117188 C 592.828125 426.230469 592.515625 430.347656 592.222656 434.46875 C 591.640625 442.652344 591.121094 450.84375 590.460938 459.023438 C 590.007812 464.617188 589.484375 470.214844 588.828125 475.792969 C 587.890625 483.746094 586.6875 491.660156 585.03125 499.492188 C 588.140625 498.820312 591.253906 498.148438 594.363281 497.476562 C 596.410156 497.03125 598.5 496.683594 600.507812 496.09375 C 602.632812 495.464844 604.234375 494.332031 605.046875 492.203125 C 605.753906 490.328125 606.222656 488.332031 606.78125 486.40625 C 607.378906 484.367188 607.972656 482.332031 608.570312 480.292969 C 609.742188 476.273438 610.917969 472.25 612.089844 468.230469 C 613.253906 464.25 614.417969 460.269531 615.558594 456.28125 C 615.617188 456.085938 615.675781 455.882812 615.746094 455.679688 C 617.042969 451.730469 620.253906 446.328125 620.425781 442.386719 C 620.929688 430.722656 618.992188 400.519531 617.859375 392.238281 " fill-opacity="1" fill-rule="nonzero"/><path fill="#f4e3d2" d="M 662.988281 448.191406 C 662.703125 448.132812 662.417969 448.082031 662.132812 448.039062 C 660.648438 447.789062 659.15625 447.609375 657.664062 447.425781 C 657.511719 447.40625 657.363281 447.390625 657.207031 447.375 C 657.285156 446.660156 657.324219 445.953125 657.316406 445.25 C 657.300781 443.808594 657.085938 442.382812 656.554688 440.992188 C 655.269531 437.640625 656 441.660156 653.84375 438.875 C 653.839844 438.867188 653.839844 438.863281 653.839844 438.859375 C 651.425781 431.96875 649.976562 424.96875 649.070312 421.496094 C 648.953125 421.0625 648.835938 420.625 648.714844 420.191406 C 648.238281 418.523438 647.695312 416.875 647.105469 415.246094 C 647.097656 415.21875 647.085938 415.195312 647.078125 415.171875 C 646.480469 413.527344 645.835938 411.894531 645.164062 410.28125 C 642.265625 403.296875 639.105469 396.410156 635.867188 389.578125 C 636.351562 389.761719 636.835938 389.945312 637.320312 390.132812 C 637.507812 390.203125 637.691406 390.273438 637.878906 390.34375 C 638.308594 390.507812 638.738281 390.671875 639.167969 390.835938 C 639.402344 390.925781 639.640625 391.015625 639.875 391.109375 C 640.660156 391.410156 641.445312 391.707031 642.234375 392.011719 C 642.699219 392.1875 643.167969 392.367188 643.632812 392.542969 C 643.921875 392.65625 644.578125 392.84375 645.308594 393.042969 C 646.425781 393.355469 647.71875 393.691406 648.097656 393.824219 C 648.414062 393.929688 648.726562 394.054688 649.03125 394.191406 C 650.386719 395.707031 651.488281 397.445312 652.363281 399.28125 C 653.742188 402.171875 654.625 405.269531 655.355469 408.375 C 656.253906 412.175781 657.011719 416.015625 657.789062 419.84375 C 657.800781 419.90625 657.816406 419.96875 657.824219 420.03125 C 658.371094 422.742188 658.910156 425.464844 659.429688 428.183594 C 660.441406 433.46875 661.402344 438.769531 662.304688 444.074219 C 662.328125 444.203125 662.347656 444.324219 662.371094 444.445312 C 662.582031 445.695312 662.785156 446.941406 662.988281 448.191406 " fill-opacity="1" fill-rule="nonzero"/><path fill="#f4e3d2" d="M 612.9375 426.847656 C 612.730469 425.402344 612.613281 423.949219 612.53125 422.492188 C 612.363281 419.503906 612.359375 416.507812 612.113281 413.523438 C 611.996094 412.109375 611.824219 410.695312 611.542969 409.300781 C 611.222656 407.671875 610.757812 406.074219 610.078125 404.550781 C 609.875 404.089844 609.765625 403.894531 609.273438 403.804688 C 608.96875 403.75 608.65625 403.726562 608.355469 403.675781 C 607.628906 403.554688 606.910156 403.378906 606.207031 403.15625 C 604.925781 402.753906 603.71875 402.191406 602.570312 401.5 C 602.554688 401.492188 602.542969 401.484375 602.53125 401.476562 C 601.617188 402.085938 597.855469 404.332031 596.949219 404.960938 C 592.230469 408.246094 590.4375 410.355469 587.535156 415.421875 C 585.925781 418.238281 574.011719 440.855469 571.421875 446.691406 C 569.671875 450.625 568.042969 456.976562 568.386719 462.390625 C 568.417969 465.652344 569.277344 468.914062 571.003906 471.675781 C 572.21875 473.621094 573.914062 474.6875 575.996094 475.558594 C 578.230469 476.492188 580.59375 477.507812 583.066406 477.40625 C 585.070312 477.328125 586.976562 476.570312 588.828125 475.792969 C 589.257812 475.609375 589.683594 475.425781 590.109375 475.25 C 592.53125 474.242188 594.9375 473.382812 597.582031 473.324219 C 598.792969 473.300781 600.027344 473.34375 601.203125 473.003906 C 602.253906 472.703125 603.175781 472.109375 604.046875 471.457031 C 605.019531 470.722656 605.941406 469.910156 607.015625 469.328125 C 607.566406 469.023438 608.164062 468.78125 608.785156 468.667969 C 609.265625 468.585938 609.785156 468.671875 610.25 468.53125 C 611.121094 468.269531 610.78125 467.609375 610.519531 466.957031 L 608.804688 462.730469 C 608.425781 461.796875 608.046875 460.863281 607.667969 459.929688 C 608.199219 459.59375 608.734375 459.203125 609.019531 458.675781 C 609.386719 457.984375 609.34375 457.089844 609.421875 456.332031 C 609.59375 454.601562 609.792969 452.867188 610.027344 451.144531 C 610.464844 447.890625 611.007812 444.652344 611.660156 441.433594 C 611.980469 439.835938 612.332031 438.238281 612.707031 436.648438 C 613.007812 435.375 613.496094 434.023438 613.675781 432.6875 C 613.730469 432.273438 613.757812 431.863281 613.742188 431.453125 C 613.675781 429.914062 613.152344 428.375 612.9375 426.847656 " fill-opacity="1" fill-rule="nonzero"/><path fill="#f4e3d2" d="M 703.851562 420.445312 C 703.785156 420.363281 701.636719 417.128906 701.578125 417.046875 C 699.351562 414.027344 697.078125 411.039062 694.753906 408.089844 C 694.148438 407.320312 693.539062 406.550781 692.925781 405.78125 C 692.691406 405.492188 692.484375 405.023438 692.113281 405.15625 C 691.835938 405.253906 692.304688 404.609375 692.074219 404.800781 C 690.828125 405.816406 688.753906 407.925781 687.582031 409.03125 C 686.367188 410.183594 685.214844 411.410156 684.214844 412.757812 C 683.304688 413.984375 676.65625 419.570312 675.476562 419.140625 C 672.777344 418.15625 670.949219 415.542969 669.300781 413.328125 C 665.6875 408.460938 664.304688 403.890625 659.707031 399.839844 C 655.957031 396.539062 650.359375 394.273438 645.191406 392.789062 C 644.183594 392.5 643.191406 392.238281 642.234375 392.011719 C 641.863281 391.921875 641.5 391.832031 641.140625 391.753906 C 641.46875 392.222656 641.945312 392.59375 642.414062 392.941406 C 643.125 393.464844 643.855469 393.96875 644.574219 394.480469 C 645.226562 394.949219 645.921875 395.40625 646.609375 395.882812 C 648.445312 397.160156 650.234375 398.574219 651.082031 400.652344 C 652.207031 403.40625 651.917969 406.5625 652.085938 409.472656 C 652.09375 409.578125 652.101562 409.6875 652.105469 409.796875 C 652.15625 410.636719 652.222656 411.472656 652.300781 412.3125 C 652.1875 413.792969 652.144531 415.273438 652.15625 416.757812 C 652.191406 421.03125 652.691406 425.308594 653.359375 429.523438 C 653.667969 431.492188 654.015625 433.445312 654.367188 435.40625 C 654.574219 436.535156 654.730469 437.664062 655.25 438.621094 C 655.269531 442.511719 655.484375 446.398438 655.902344 450.269531 C 655.914062 450.378906 655.996094 450.445312 656.105469 450.425781 C 658.082031 450.058594 660.089844 449.953125 662.089844 450.152344 C 664.050781 450.34375 665.910156 450.886719 667.785156 451.449219 C 669.480469 451.957031 671.179688 452.402344 672.957031 452.46875 C 674.777344 452.539062 676.601562 452.28125 678.367188 451.855469 C 679.789062 451.511719 681.179688 451.0625 682.480469 450.445312 C 682.828125 450.320312 683.175781 450.144531 683.519531 449.902344 C 684.609375 449.277344 685.621094 448.511719 686.507812 447.5625 C 688.386719 445.542969 689.640625 443.046875 690.84375 440.59375 C 691.136719 440 691.425781 439.402344 691.722656 438.808594 C 692.820312 437.742188 693.957031 436.710938 695.027344 435.628906 C 697.789062 432.84375 699.679688 429.632812 701.160156 426.015625 C 702.015625 423.933594 702.980469 422.117188 703.851562 420.445312 " fill-opacity="1" fill-rule="nonzero"/><g clip-path="url(#960bb3147a)"><path fill="#f4e3d2" d="M 672.367188 513.570312 C 671.253906 509.148438 669.863281 504.761719 669.171875 500.242188 C 668.457031 495.589844 668.636719 490.871094 668.390625 486.183594 C 667.929688 477.195312 666.335938 468.289062 665 459.402344 C 664.246094 454.390625 663.492188 449.386719 662.738281 444.378906 C 662.105469 440.160156 661.46875 435.949219 660.835938 431.730469 C 660.484375 429.390625 660.210938 427.023438 659.742188 424.699219 C 659.410156 423.042969 658.878906 421.367188 657.824219 420.03125 C 657.679688 419.84375 657.523438 419.664062 657.351562 419.492188 C 656.558594 418.679688 655.621094 418.101562 654.613281 417.648438 C 653.828125 417.292969 653 417.015625 652.160156 416.757812 C 650.488281 416.253906 648.769531 415.828125 647.261719 415.0625 C 647.261719 415.0625 647.257812 415.0625 647.257812 415.058594 C 647.234375 415.054688 647.078125 415.128906 647.078125 415.171875 C 647.078125 415.175781 647.078125 415.175781 647.078125 415.179688 C 647.085938 415.199219 647.09375 415.21875 647.101562 415.246094 C 647.636719 416.871094 648.175781 418.523438 648.710938 420.191406 C 649.421875 422.402344 650.117188 424.652344 650.78125 426.90625 C 651.949219 430.882812 653.019531 434.902344 653.839844 438.859375 C 653.839844 438.863281 653.839844 438.867188 653.84375 438.875 C 653.964844 439.46875 654.085938 440.058594 654.195312 440.652344 C 654.976562 444.742188 655.460938 448.871094 655.625 453.027344 C 655.628906 453.175781 655.632812 453.320312 655.644531 453.46875 C 655.785156 457.605469 655.679688 461.746094 655.699219 465.882812 C 655.71875 469.894531 655.851562 473.910156 656.441406 477.875 C 657.039062 481.875 658.207031 485.664062 659.851562 489.355469 C 661.585938 493.25 663.382812 497.070312 664.554688 501.1875 C 665.738281 505.332031 666.425781 509.609375 666.632812 513.914062 C 667.058594 522.59375 665.824219 531.546875 668.382812 539.976562 L 677.761719 539.976562 C 676.359375 531.097656 674.558594 522.285156 672.367188 513.570312 " fill-opacity="1" fill-rule="nonzero"/></g><path fill="#212333" d="M 614.769531 452.46875 C 614.765625 452.191406 614.75 451.914062 614.742188 451.636719 C 614.625 448.925781 614.695312 445.730469 613.324219 443.296875 C 613.273438 443.207031 613.222656 443.121094 613.171875 443.03125 C 612.144531 441.417969 610.25 440.230469 608.300781 440.785156 C 606.222656 441.382812 604.878906 443.488281 604.078125 445.445312 C 603.980469 445.679688 603.894531 445.914062 603.8125 446.144531 C 602.484375 449.902344 602.820312 454.523438 603.546875 458.324219 C 603.632812 458.78125 603.722656 459.21875 603.820312 459.644531 C 604.410156 462.234375 605.238281 464.324219 606.847656 466.582031 C 608.0625 468.28125 610.5 469.714844 612.433594 468.203125 C 614.371094 466.691406 614.457031 463.332031 614.613281 461.121094 C 614.8125 458.246094 614.863281 455.351562 614.769531 452.46875 " fill-opacity="1" fill-rule="nonzero"/><path fill="#212333" d="M 704.121094 418.070312 C 703.988281 417.144531 703.71875 416.246094 703.363281 415.382812 C 702.722656 413.851562 701.832031 412.445312 700.886719 411.089844 C 700.753906 410.902344 700.625 410.714844 700.492188 410.527344 C 699.296875 408.847656 698.078125 407.089844 696.390625 405.863281 C 695.75 405.398438 695.039062 405.011719 694.289062 404.761719 C 694.144531 404.710938 693.996094 404.667969 693.847656 404.632812 C 693.378906 404.511719 692.730469 404.386719 692.265625 404.660156 C 691.300781 405.234375 691.460938 406.816406 691.625 407.597656 C 691.636719 407.65625 691.648438 407.714844 691.664062 407.773438 C 692.074219 409.53125 693.078125 411.113281 694.039062 412.617188 C 695.007812 414.144531 696.050781 415.632812 697.269531 416.972656 C 697.355469 417.066406 697.4375 417.160156 697.527344 417.25 C 698.601562 418.394531 699.8125 419.40625 701.1875 420.167969 C 702.007812 420.617188 703.566406 421.285156 704.09375 420.074219 C 704.351562 419.472656 704.210938 418.691406 704.121094 418.070312 " fill-opacity="1" fill-rule="nonzero"/><path fill="#798d99" d="M 617.859375 392.238281 C 616.167969 393.351562 613.683594 394.824219 611.113281 396.335938 C 611.1875 400.660156 611.328125 404.980469 611.542969 409.300781 C 611.726562 412.957031 611.957031 416.617188 612.242188 420.269531 C 612.566406 424.429688 612.953125 428.574219 613.675781 432.6875 C 613.683594 432.742188 613.695312 432.796875 613.703125 432.851562 C 614.46875 437.164062 615.265625 441.433594 615.382812 445.820312 C 615.476562 449.105469 615.402344 452.414062 615.746094 455.679688 C 617.042969 451.730469 620.253906 446.328125 620.425781 442.386719 C 620.929688 430.722656 618.992188 400.519531 617.859375 392.238281 " fill-opacity="1" fill-rule="nonzero"/><path fill="#798d99" d="M 657.695312 430.621094 C 657.027344 426.226562 655.875 421.910156 654.617188 417.652344 C 654.515625 417.3125 654.414062 416.976562 654.3125 416.636719 C 653.625 414.339844 652.890625 412.0625 652.105469 409.796875 C 651.351562 407.609375 650.550781 405.4375 649.710938 403.28125 C 648.734375 400.792969 647.699219 398.324219 646.609375 395.882812 C 646.183594 394.933594 645.75 393.988281 645.308594 393.042969 C 645.273438 392.960938 645.230469 392.875 645.191406 392.789062 C 644.183594 392.5 643.191406 392.238281 642.234375 392.011719 C 641.445312 391.707031 640.660156 391.410156 639.875 391.109375 C 639.640625 391.015625 639.402344 390.925781 639.167969 390.835938 C 638.738281 390.671875 638.308594 390.507812 637.878906 390.34375 C 637.691406 390.273438 637.507812 390.203125 637.320312 390.132812 C 636.835938 389.945312 636.351562 389.761719 635.867188 389.578125 C 639.105469 396.410156 642.265625 403.296875 645.164062 410.28125 C 645.835938 411.894531 646.480469 413.527344 647.078125 415.171875 C 647.085938 415.195312 647.097656 415.21875 647.105469 415.246094 C 647.636719 416.871094 648.175781 418.523438 648.714844 420.191406 C 648.835938 420.625 648.953125 421.0625 649.070312 421.496094 C 649.976562 424.96875 651.425781 431.96875 653.839844 438.859375 C 653.839844 438.863281 653.839844 438.867188 653.84375 438.875 C 653.964844 439.46875 654.085938 440.058594 654.195312 440.648438 C 654.976562 444.742188 655.460938 448.871094 655.625 453.027344 C 656.222656 450.441406 656.804688 447.851562 657.316406 445.25 C 657.367188 445 657.417969 444.75 657.464844 444.5 C 657.683594 443.371094 657.851562 442.242188 657.964844 441.117188 C 658.335938 437.625 658.226562 434.136719 657.695312 430.621094 " fill-opacity="1" fill-rule="nonzero"/><path fill="#b9643c" d="M 637.585938 348.550781 C 633.082031 340.238281 621.691406 342.0625 615.195312 346.808594 C 611.894531 349.222656 608.914062 352.527344 608.054688 356.558594 C 607.195312 360.574219 607.921875 364.929688 610.464844 368.214844 C 613.417969 372.027344 618.050781 374.109375 620.90625 378.015625 C 621.007812 378.15625 621.269531 378.078125 621.203125 377.890625 C 619.570312 373.035156 617.78125 367.511719 619.507812 362.433594 C 621.167969 357.558594 625.832031 354.820312 630.027344 352.351562 C 632.363281 350.976562 634.683594 349.558594 636.652344 347.679688 C 636.886719 348.007812 637.105469 348.351562 637.300781 348.714844 C 637.402344 348.902344 637.6875 348.738281 637.585938 348.550781 " fill-opacity="1" fill-rule="nonzero"/><path fill="#212333" d="M 640.265625 352.890625 C 640.007812 350.960938 638.726562 349.09375 637.535156 347.554688 C 636.136719 345.757812 634.726562 344.632812 632.703125 343.660156 C 628.75 341.757812 624.105469 341.589844 620.0625 343.3125 C 618.496094 343.976562 617.066406 344.902344 615.808594 346.03125 C 614.210938 346.566406 612.789062 347.4375 611.734375 348.714844 C 610.097656 350.703125 608.464844 353.429688 607.699219 355.894531 C 606.824219 358.726562 606.847656 362.679688 607.199219 365.648438 C 607.398438 367.34375 607.933594 368.976562 608.425781 370.601562 C 608.832031 371.949219 609.246094 373.296875 609.667969 374.640625 C 609.585938 374.65625 609.507812 374.726562 609.527344 374.832031 C 609.777344 376.1875 613.382812 386.507812 615.808594 386.882812 C 616.886719 387.050781 617.875 386.65625 618.484375 385.746094 C 619.324219 384.496094 619.785156 382.890625 620.371094 381.507812 C 620.925781 380.195312 621.539062 378.832031 621.402344 377.367188 C 621.277344 376.015625 620.601562 374.800781 619.867188 373.6875 C 618.820312 372.101562 617.511719 370.492188 617.453125 368.5 C 617.425781 367.605469 617.761719 366.835938 618.144531 366.0625 C 618.636719 365.316406 619.21875 364.621094 619.796875 363.933594 C 620.984375 362.527344 622.066406 361.109375 622.777344 359.394531 C 624.167969 356.054688 624.28125 352.34375 623.945312 348.773438 C 625.566406 350.269531 627.796875 350.921875 629.976562 351.160156 C 631.710938 351.347656 633.460938 351.3125 635.199219 351.429688 C 636.746094 351.535156 638.933594 351.617188 639.84375 353.113281 C 639.921875 353.238281 640.085938 353.1875 640.128906 353.085938 C 640.207031 353.066406 640.28125 352.992188 640.265625 352.890625 " fill-opacity="1" fill-rule="nonzero"/><path fill="#b9643c" d="M 621.246094 367.335938 C 620.726562 366.402344 619.855469 366.203125 618.890625 366.179688 C 617.628906 365.796875 616.183594 366.257812 615.421875 367.515625 C 614.386719 369.222656 615.28125 371.539062 617.148438 372.183594 C 618.960938 372.808594 620.945312 371.84375 621.496094 369.992188 C 621.753906 369.125 621.6875 368.132812 621.246094 367.335938 " fill-opacity="1" fill-rule="nonzero"/><path fill="#f4e3d2" d="M 620.308594 372.378906 C 620.066406 371.785156 619.285156 370.976562 618.625 371.550781 C 618.460938 371.695312 618.367188 371.898438 618.394531 372.117188 C 618.417969 372.328125 618.578125 372.460938 618.65625 372.648438 C 618.941406 373.289062 618.714844 374.035156 618.238281 374.507812 C 617.738281 375.003906 616.453125 375.027344 616.632812 374.03125 C 616.695312 373.683594 617.011719 373.417969 617.160156 373.109375 C 617.292969 372.832031 617.378906 372.527344 617.238281 372.230469 C 617.023438 371.765625 616.671875 371.773438 616.371094 371.972656 C 616.347656 371.976562 616.320312 371.988281 616.296875 372.011719 C 616.28125 372.027344 616.269531 372.042969 616.253906 372.058594 C 616.128906 372.164062 616.015625 372.300781 615.933594 372.441406 C 615.929688 372.449219 615.929688 372.457031 615.925781 372.464844 C 614.933594 373.925781 615.359375 376.0625 617.40625 376.292969 C 618.421875 376.40625 619.292969 376.097656 619.871094 375.242188 C 620.421875 374.433594 620.695312 373.3125 620.308594 372.378906 " fill-opacity="1" fill-rule="nonzero"/><path fill="#f4e3d2" d="M 619.679688 375.441406 C 619.167969 375.113281 618.566406 375.414062 618.667969 376.050781 C 618.707031 376.304688 618.898438 376.464844 618.996094 376.691406 C 619.25 377.308594 619.039062 377.859375 618.488281 378.179688 C 617.910156 378.519531 617.03125 378.609375 616.777344 377.734375 C 616.636719 377.242188 616.863281 376.664062 617.230469 376.332031 C 617.402344 376.179688 617.757812 376.101562 617.792969 375.828125 C 617.824219 375.605469 617.566406 375.410156 617.324219 375.273438 C 617.449219 375.179688 617.363281 374.9375 617.1875 374.996094 C 617.101562 375.023438 617.015625 375.058594 616.9375 375.097656 C 616.878906 375.09375 616.832031 375.125 616.800781 375.167969 C 615.375 375.949219 614.925781 378.230469 616.277344 379.335938 C 617.746094 380.53125 620.078125 379.417969 620.398438 377.65625 C 620.527344 376.9375 620.351562 375.875 619.679688 375.441406 " fill-opacity="1" fill-rule="nonzero"/><path fill="#212333" d="M 625.882812 359.203125 C 625.152344 359.304688 624.136719 359.855469 623.617188 360.394531 C 623.144531 360.882812 622.554688 361.433594 622.695312 362.238281 C 622.699219 362.265625 622.710938 362.285156 622.722656 362.300781 C 622.8125 363.03125 623.339844 363.691406 624.117188 363.671875 C 624.894531 363.652344 625.445312 362.949219 626.109375 362.632812 C 626.707031 362.34375 627.308594 362.167969 627.582031 361.433594 C 628.148438 359.898438 626.996094 359.042969 625.882812 359.203125 " fill-opacity="1" fill-rule="nonzero"/><path fill="#212333" d="M 634.742188 354.449219 C 634.003906 354.488281 632.941406 354.945312 632.378906 355.4375 C 631.867188 355.882812 631.230469 356.378906 631.300781 357.191406 C 631.300781 357.21875 631.308594 357.238281 631.316406 357.257812 C 631.34375 357.988281 631.808594 358.695312 632.585938 358.746094 C 633.363281 358.792969 633.972656 358.144531 634.664062 357.886719 C 635.285156 357.652344 635.898438 357.53125 636.234375 356.820312 C 636.9375 355.34375 635.863281 354.390625 634.742188 354.449219 " fill-opacity="1" fill-rule="nonzero"/><path fill="#542814" d="M 620.519531 370.816406 C 619.9375 370.78125 619.308594 370.722656 618.796875 370.410156 C 618.09375 369.984375 617.621094 369.117188 618.246094 368.367188 C 618.335938 368.261719 618.277344 368.105469 618.132812 368.09375 C 617.449219 368.054688 616.894531 368.351562 616.542969 368.945312 C 616.4375 369.121094 616.714844 369.28125 616.820312 369.105469 C 617.0625 368.699219 617.398438 368.476562 617.832031 368.425781 C 617.53125 368.976562 617.585938 369.625 618.003906 370.15625 C 618.605469 370.921875 619.609375 371.078125 620.519531 371.136719 C 620.726562 371.148438 620.722656 370.828125 620.519531 370.816406 " fill-opacity="1" fill-rule="nonzero"/><path fill="#3e3c57" d="M 630.972656 498.070312 C 628.117188 507.597656 624.832031 516.992188 621.125 526.222656 C 621.050781 526.414062 621.359375 526.496094 621.433594 526.308594 C 625.136719 517.078125 628.421875 507.683594 631.28125 498.15625 C 631.339844 497.957031 631.03125 497.875 630.972656 498.070312 " fill-opacity="1" fill-rule="nonzero"/><path fill="#798d99" d="M 609.613281 470.484375 C 605.695312 473.710938 600.367188 473.289062 595.667969 474.210938 C 593.355469 474.664062 591.230469 475.605469 589.046875 476.460938 C 586.75 477.355469 584.34375 478.105469 581.863281 477.617188 C 581.660156 477.574219 581.574219 477.882812 581.777344 477.921875 C 586.683594 478.894531 591.097656 475.433594 595.75 474.523438 C 600.523438 473.585938 605.863281 473.984375 609.839844 470.707031 C 610 470.578125 609.773438 470.355469 609.613281 470.484375 " fill-opacity="1" fill-rule="nonzero"/><path fill="#798d99" d="M 606.054688 440.167969 C 600.402344 439.730469 594.546875 439.296875 589.085938 441.15625 C 586.828125 441.921875 584.726562 443.074219 582.933594 444.65625 C 581.234375 446.152344 579.804688 447.914062 578.25 449.546875 C 576.574219 451.304688 574.722656 452.921875 572.390625 453.671875 C 575.160156 449.09375 579.097656 445.320312 583.796875 442.753906 C 583.976562 442.65625 583.816406 442.378906 583.636719 442.476562 C 578.769531 445.132812 574.703125 449.082031 571.898438 453.863281 C 571.828125 453.984375 571.945312 454.136719 572.078125 454.097656 C 576.246094 452.964844 578.816406 449.257812 581.675781 446.304688 C 583.453125 444.472656 585.449219 442.980469 587.8125 441.980469 C 590.328125 440.914062 593.042969 440.386719 595.761719 440.195312 C 599.195312 439.953125 602.632812 440.222656 606.054688 440.488281 C 606.261719 440.5 606.261719 440.183594 606.054688 440.167969 " fill-opacity="1" fill-rule="nonzero"/><path fill="#798d99" d="M 598.992188 427.375 C 599.027344 427.171875 598.71875 427.085938 598.683594 427.289062 C 597.996094 431.542969 596.828125 435.695312 595.199219 439.683594 C 595.132812 439.851562 595.414062 439.972656 595.492188 439.804688 C 595.558594 439.667969 595.625 439.527344 595.6875 439.386719 C 595.707031 439.347656 595.707031 439.316406 595.699219 439.28125 C 597.222656 435.441406 598.332031 431.457031 598.992188 427.375 " fill-opacity="1" fill-rule="nonzero"/><path fill="#798d99" d="M 661.421875 415.113281 C 661.390625 414.910156 661.082031 414.996094 661.113281 415.199219 C 662.871094 426.449219 663.746094 437.828125 663.738281 449.214844 C 663.738281 449.421875 664.054688 449.421875 664.054688 449.214844 C 664.066406 437.796875 663.183594 426.394531 661.421875 415.113281 " fill-opacity="1" fill-rule="nonzero"/><path fill="#9b4929" d="M 636.386719 457.695312 C 635.941406 457.285156 635.25 457.253906 634.808594 457.695312 L 634.765625 457.734375 C 634.351562 458.148438 634.324219 458.910156 634.765625 459.316406 C 635.214844 459.726562 635.90625 459.757812 636.347656 459.316406 C 636.359375 459.304688 636.375 459.289062 636.386719 459.277344 C 636.800781 458.863281 636.832031 458.105469 636.386719 457.695312 " fill-opacity="1" fill-rule="nonzero"/><path fill="#9b4929" d="M 635.835938 461.285156 C 634.398438 461.285156 634.394531 463.519531 635.835938 463.519531 C 637.277344 463.519531 637.277344 461.285156 635.835938 461.285156 " fill-opacity="1" fill-rule="nonzero"/><path fill="#3e3c57" d="M 616.082031 356.914062 C 614.71875 359.875 614.203125 363.121094 614.59375 366.359375 C 614.617188 366.5625 614.9375 366.5625 614.914062 366.359375 C 614.527344 363.179688 615.019531 359.984375 616.359375 357.074219 C 616.445312 356.886719 616.167969 356.726562 616.082031 356.914062 " fill-opacity="1" fill-rule="nonzero"/><path fill="#3e3c57" d="M 611.144531 367.285156 C 609.710938 364.527344 609.324219 361.378906 610.046875 358.351562 C 610.09375 358.152344 609.789062 358.066406 609.738281 358.269531 C 609 361.375 609.398438 364.613281 610.871094 367.449219 C 610.964844 367.628906 611.242188 367.46875 611.144531 367.285156 " fill-opacity="1" fill-rule="nonzero"/><path fill="#3e3c57" d="M 623.40625 347.273438 C 622.589844 346.496094 621.636719 345.90625 620.550781 345.582031 C 619.277344 345.199219 617.941406 345.292969 616.628906 345.300781 C 616.421875 345.300781 616.421875 345.621094 616.628906 345.617188 C 617.820312 345.609375 619.046875 345.519531 620.214844 345.820312 C 621.34375 346.109375 622.339844 346.695312 623.179688 347.5 C 623.328125 347.644531 623.554688 347.417969 623.40625 347.273438 " fill-opacity="1" fill-rule="nonzero"/><path fill="#3e3c57" d="M 606.6875 397.003906 C 605.914062 394.496094 605.910156 391.867188 606.679688 389.355469 C 606.742188 389.160156 606.433594 389.074219 606.371094 389.269531 C 605.585938 391.835938 605.589844 394.53125 606.382812 397.089844 C 606.441406 397.285156 606.75 397.203125 606.6875 397.003906 " fill-opacity="1" fill-rule="nonzero"/><path fill="#798d99" d="M 655.4375 446.480469 L 653.515625 444.027344 C 653.285156 443.746094 652.9375 443.5625 652.539062 443.5625 L 627.3125 443.5625 C 626.710938 443.5625 626.195312 443.992188 626.082031 444.582031 L 622.632812 462.523438 C 622.484375 463.300781 623.078125 464.019531 623.867188 464.019531 L 649.09375 464.019531 C 649.695312 464.019531 650.210938 463.589844 650.324219 463 L 653.5 446.480469 L 655.4375 446.480469 " fill-opacity="1" fill-rule="nonzero"/><path fill="#ffffff" d="M 651.601562 464.019531 L 627.039062 464.019531 C 626.464844 464.019531 626.035156 463.496094 626.144531 462.933594 L 629.210938 446.890625 C 629.292969 446.460938 629.667969 446.152344 630.105469 446.152344 L 654.667969 446.152344 C 655.242188 446.152344 655.671875 446.671875 655.5625 447.234375 L 652.496094 463.28125 C 652.414062 463.710938 652.039062 464.019531 651.601562 464.019531 " fill-opacity="1" fill-rule="nonzero"/><path fill="#a8b6be" d="M 641.664062 449.375 C 638.191406 449.523438 635.378906 451.902344 635.378906 454.6875 C 635.378906 456.074219 636.078125 457.296875 637.207031 458.160156 C 636.285156 458.972656 634.941406 459.355469 633.792969 459.683594 C 633.640625 459.726562 633.640625 459.949219 633.792969 459.992188 C 635.152344 460.378906 636.570312 460.703125 637.949219 460.222656 C 638.496094 460.027344 639.121094 459.703125 639.59375 459.261719 C 640.242188 459.414062 640.9375 459.488281 641.664062 459.457031 C 645.136719 459.308594 647.949219 456.929688 647.949219 454.148438 C 647.949219 451.363281 645.136719 449.226562 641.664062 449.375 " fill-opacity="1" fill-rule="nonzero"/><path fill="#ff8e61" d="M 648.382812 450.324219 C 648.070312 450.035156 647.6875 449.855469 647.253906 449.855469 L 647.199219 449.855469 C 646.789062 449.855469 646.359375 450.035156 646.070312 450.324219 C 645.792969 450.601562 645.585938 451.054688 645.601562 451.453125 C 645.621094 451.867188 645.757812 452.296875 646.070312 452.582031 C 646.382812 452.871094 646.769531 453.054688 647.199219 453.054688 L 647.253906 453.054688 C 647.664062 453.054688 648.09375 452.875 648.382812 452.582031 C 648.660156 452.304688 648.867188 451.851562 648.851562 451.453125 C 648.832031 451.039062 648.695312 450.609375 648.382812 450.324219 " fill-opacity="1" fill-rule="nonzero"/><path fill="#b9643c" d="M 619.726562 441.304688 C 619.699219 441.21875 619.609375 441.160156 619.523438 441.1875 C 618.613281 441.472656 617.710938 441.742188 616.816406 442.007812 C 615.589844 442.363281 614.375 442.703125 613.171875 443.03125 C 610.09375 443.867188 607.082031 444.625 604.078125 445.445312 C 603.980469 445.679688 603.894531 445.914062 603.8125 446.144531 C 602.484375 449.902344 602.820312 454.523438 603.546875 458.324219 C 603.632812 458.78125 603.722656 459.21875 603.820312 459.644531 C 607.519531 457.324219 611.160156 454.914062 614.769531 452.46875 C 616.589844 451.234375 618.398438 449.992188 620.210938 448.746094 C 620.523438 448.53125 620.832031 448.316406 621.144531 448.101562 C 621.515625 447.742188 621.886719 447.390625 622.265625 447.042969 C 621.222656 445.222656 620.378906 443.304688 619.726562 441.304688 " fill-opacity="1" fill-rule="nonzero"/><path fill="#b9643c" d="M 640.984375 444.667969 C 639.511719 440.992188 634.773438 438.46875 631.585938 437.800781 C 630.792969 437.632812 630.046875 437.660156 629.308594 437.816406 C 629.296875 437.816406 629.285156 437.8125 629.273438 437.816406 C 628.179688 437.890625 627.003906 438.511719 625.984375 438.875 C 623.476562 439.765625 620.96875 440.65625 618.460938 441.550781 C 618.34375 441.484375 618.117188 446.722656 617.796875 449.21875 C 617.785156 449.304688 617.855469 449.382812 617.929688 449.410156 C 618.859375 449.777344 619.792969 450.144531 620.726562 450.511719 C 621.425781 450.785156 622.128906 451.066406 622.890625 451.054688 C 623.722656 451.039062 624.542969 450.738281 625.351562 450.566406 C 626.285156 450.367188 630.042969 448.871094 630.695312 448.847656 C 631.457031 449.058594 632.867188 450.59375 634.054688 451.796875 C 634.449219 452.199219 634.671875 452.796875 635.140625 453.121094 C 635.6875 453.496094 636.285156 453.289062 636.609375 452.746094 C 636.816406 452.40625 636.921875 452.054688 636.945312 451.699219 C 637.519531 452.597656 638.226562 453.175781 638.925781 452.261719 C 639.289062 451.789062 639.277344 451.113281 639.203125 450.511719 C 639.566406 450.6875 639.96875 450.679688 640.277344 450.269531 C 640.789062 449.59375 640.539062 448.402344 640.308594 447.636719 C 640.761719 447.75 641.171875 447.609375 641.398438 447.152344 C 641.757812 446.429688 641.25 445.335938 640.984375 444.667969 " fill-opacity="1" fill-rule="nonzero"/><path fill="#542814" d="M 640.152344 446.835938 C 638.980469 443.671875 636.335938 441.253906 633.078125 440.386719 C 632.867188 440.328125 632.777344 440.652344 632.988281 440.707031 C 636.125 441.546875 638.695312 443.875 639.828125 446.921875 C 639.902344 447.125 640.226562 447.039062 640.152344 446.835938 " fill-opacity="1" fill-rule="nonzero"/><path fill="#542814" d="M 630.40625 445.433594 C 630.191406 445.414062 630.191406 445.75 630.40625 445.769531 C 633.117188 446.003906 635.3125 448.972656 636.210938 451.304688 C 636.289062 451.503906 636.613281 451.417969 636.535156 451.21875 C 635.574219 448.726562 633.289062 445.679688 630.40625 445.433594 " fill-opacity="1" fill-rule="nonzero"/><path fill="#542814" d="M 632.085938 442.550781 C 631.878906 442.484375 631.792969 442.808594 631.996094 442.875 C 635.117188 443.890625 637.554688 446.417969 638.46875 449.570312 C 638.527344 449.777344 638.851562 449.6875 638.792969 449.480469 C 637.84375 446.210938 635.320312 443.605469 632.085938 442.550781 " fill-opacity="1" fill-rule="nonzero"/><path fill="#b9643c" d="M 709.601562 393.347656 C 709.175781 393.984375 708.46875 394.1875 708.117188 394.914062 C 707.667969 395.835938 707.171875 396.613281 706.496094 397.398438 C 705.308594 398.777344 704.007812 400.292969 702.105469 400.5625 C 701.902344 400.59375 701.992188 400.902344 702.191406 400.871094 C 704.058594 400.605469 705.367188 399.179688 706.546875 397.828125 C 707.171875 397.113281 707.785156 396.378906 708.199219 395.515625 C 708.476562 394.929688 708.683594 394.539062 709.21875 394.140625 C 709.476562 393.949219 709.695312 393.78125 709.878906 393.507812 C 709.992188 393.335938 709.714844 393.175781 709.601562 393.347656 " fill-opacity="1" fill-rule="nonzero"/><path fill="#8261b0" d="M 817.832031 524.714844 L 699.296875 524.714844 C 696.144531 524.714844 693.179688 523.324219 691.167969 520.898438 C 689.152344 518.472656 688.328125 515.300781 688.90625 512.199219 L 726.394531 311.136719 C 727.328125 306.132812 731.695312 302.5 736.78125 302.5 L 849.792969 297.476562 C 858.417969 298.433594 860.8125 299.886719 862.96875 302.1875 C 866.484375 305.945312 866.285156 311.914062 865.707031 315.015625 L 828.21875 516.078125 C 827.289062 521.082031 822.917969 524.714844 817.832031 524.714844 " fill-opacity="1" fill-rule="nonzero"/><path fill="#9eaedb" d="M 732.710938 299.074219 C 728.046875 299.074219 724.039062 302.402344 723.1875 306.992188 L 686.042969 506.050781 C 685.511719 508.894531 686.265625 511.800781 688.113281 514.027344 C 689.960938 516.25 692.675781 517.527344 695.566406 517.527344 L 811.5625 517.527344 C 816.226562 517.527344 820.230469 514.195312 821.089844 509.609375 L 858.230469 310.546875 C 858.761719 307.707031 858.007812 304.796875 856.160156 302.574219 C 854.3125 300.347656 851.597656 299.074219 848.707031 299.074219 L 732.710938 299.074219 " fill-opacity="1" fill-rule="nonzero"/><path fill="#dbe2e7" d="M 856.445312 301.171875 C 854.539062 298.871094 851.730469 297.554688 848.75 297.554688 L 732.75 297.554688 C 727.933594 297.554688 723.796875 300.996094 722.910156 305.730469 L 722.335938 308.824219 L 722.273438 309.144531 L 719.792969 322.480469 L 706.023438 396.445312 L 687.8125 494.242188 L 687.75 494.558594 L 685.652344 505.828125 C 685.101562 508.765625 685.882812 511.769531 687.789062 514.066406 C 689.699219 516.363281 692.503906 517.683594 695.492188 517.683594 L 811.484375 517.683594 C 816.300781 517.683594 820.441406 514.242188 821.324219 509.503906 L 824.105469 494.558594 L 824.164062 494.242188 L 830.390625 460.804688 L 830.453125 460.484375 L 839.351562 412.691406 L 839.703125 410.816406 L 839.761719 410.496094 L 841.785156 399.625 L 856.152344 322.480469 L 858.585938 309.410156 C 858.601562 309.316406 858.617188 309.234375 858.628906 309.144531 C 858.648438 309.039062 858.664062 308.929688 858.675781 308.824219 C 859.023438 306.074219 858.226562 303.316406 856.445312 301.171875 " fill-opacity="1" fill-rule="nonzero"/><path fill="#ffffff" d="M 850.820312 304.355469 C 849.042969 302.21875 846.429688 300.992188 843.65625 300.992188 L 735.699219 300.992188 C 731.21875 300.992188 727.371094 304.191406 726.546875 308.601562 L 726.007812 311.476562 L 725.953125 311.777344 L 723.644531 324.1875 L 722.773438 328.851562 L 710.824219 393.023438 L 708.113281 407.835938 L 708.097656 407.914062 L 703.1875 434.765625 L 703.105469 435.222656 L 698.03125 462.953125 L 697.972656 463.273438 L 692.773438 491.703125 L 692.714844 492 L 690.765625 502.484375 C 690.25 505.222656 690.980469 508.011719 692.75 510.15625 C 694.53125 512.292969 697.140625 513.519531 699.917969 513.519531 L 807.871094 513.519531 C 812.351562 513.519531 816.207031 510.320312 817.023438 505.910156 L 820.722656 484.332031 L 820.777344 484.039062 L 824.640625 463.273438 L 824.703125 462.953125 L 826.570312 452.917969 L 826.628906 452.621094 L 829.90625 435.023438 L 829.953125 434.765625 L 834.910156 408.144531 L 834.9375 408.011719 L 834.953125 407.914062 L 834.96875 407.828125 L 835.234375 406.398438 L 835.289062 406.101562 L 837.175781 395.984375 L 849.675781 328.851562 L 850.542969 324.1875 L 852.808594 312.023438 C 852.824219 311.9375 852.839844 311.859375 852.847656 311.777344 C 852.871094 311.675781 852.882812 311.578125 852.894531 311.476562 C 853.21875 308.921875 852.476562 306.351562 850.820312 304.355469 " fill-opacity="1" fill-rule="nonzero"/><path fill="#212333" d="M 730.261719 435.527344 L 719.140625 435.527344 C 716.84375 435.527344 714.871094 437.167969 714.449219 439.4375 L 714.410156 439.667969 L 714.296875 440.265625 L 713.273438 445.824219 L 713.039062 447.101562 L 712.84375 448.152344 C 712.300781 451.089844 714.550781 453.796875 717.535156 453.796875 L 727.730469 453.796875 C 730.03125 453.796875 732.003906 452.152344 732.421875 449.890625 L 732.9375 447.101562 L 733.214844 445.601562 L 734.199219 440.265625 C 734.214844 440.167969 734.230469 440.070312 734.238281 439.972656 C 734.253906 439.871094 734.261719 439.769531 734.261719 439.667969 C 734.34375 437.445312 732.558594 435.527344 730.261719 435.527344 " fill-opacity="1" fill-rule="nonzero"/><path fill="#dbe2e7" d="M 729.589844 466.308594 C 728.796875 463.957031 726.574219 462.207031 723.878906 462.207031 L 715.777344 462.207031 C 712.863281 462.207031 710.375 464.285156 709.847656 467.144531 L 709.304688 470.09375 L 708.625 473.777344 C 708.015625 477.066406 710.183594 480.128906 713.3125 480.777344 C 713.710938 480.859375 714.125 480.90625 714.550781 480.90625 L 722.65625 480.90625 C 725.5625 480.90625 728.058594 478.828125 728.585938 475.96875 L 729.679688 470.035156 L 729.808594 469.335938 C 730.003906 468.277344 729.914062 467.246094 729.589844 466.308594 " fill-opacity="1" fill-rule="nonzero"/><path fill="#eef1f0" d="M 850.421875 324.9375 L 852.484375 314.40625 L 725.457031 314.394531 L 723.503906 324.9375 L 850.421875 324.9375 " fill-opacity="1" fill-rule="nonzero"/><path fill="#dbe2e7" d="M 815.578125 498.355469 C 814.042969 496.503906 811.78125 495.441406 809.378906 495.441406 L 698.640625 495.441406 C 695.128906 495.441406 692.066406 497.710938 690.988281 500.972656 L 690.433594 504.710938 C 689.992188 507.078125 690.621094 509.496094 692.152344 511.351562 C 693.6875 513.203125 695.941406 514.265625 698.339844 514.265625 L 808.898438 514.265625 C 812.769531 514.265625 816.097656 511.492188 816.804688 507.675781 L 817.453125 503.554688 C 817.464844 501.675781 816.796875 499.824219 815.578125 498.355469 " fill-opacity="1" fill-rule="nonzero"/><path fill="#212333" d="M 807.984375 471.9375 L 798.871094 476.753906 L 799.964844 467.472656 Z M 807.984375 471.9375 " fill-opacity="1" fill-rule="nonzero"/><path fill="#212333" d="M 718.738281 503.207031 L 717.722656 508.53125 C 717.695312 508.675781 717.570312 508.78125 717.425781 508.78125 L 715.425781 508.78125 L 715.808594 506.777344 C 715.824219 506.6875 715.757812 506.605469 715.671875 506.605469 L 711.820312 506.605469 C 711.753906 506.605469 711.695312 506.65625 711.679688 506.726562 L 711.285156 508.78125 L 709.273438 508.78125 C 709.082031 508.78125 708.9375 508.605469 708.972656 508.417969 L 709.992188 503.09375 C 710.019531 502.949219 714.824219 499.589844 714.824219 499.589844 C 714.824219 499.589844 718.777344 503.019531 718.738281 503.207031 " fill-opacity="1" fill-rule="nonzero"/><path fill="#212333" d="M 754.714844 506.738281 C 754.3125 506.929688 753.863281 507.042969 753.386719 507.042969 C 751.710938 507.042969 750.351562 505.683594 750.351562 504.003906 C 750.351562 502.328125 751.710938 500.96875 753.386719 500.96875 C 755.0625 500.96875 756.421875 502.328125 756.421875 504.003906 C 756.421875 504.730469 756.164062 505.398438 755.742188 505.917969 C 755.464844 506.261719 755.117188 506.539062 754.714844 506.738281 Z M 758.128906 509.203125 L 756.382812 506.800781 C 757.070312 506.070312 757.484375 505.085938 757.484375 504.003906 C 757.484375 501.738281 755.652344 499.902344 753.386719 499.902344 C 751.125 499.902344 749.285156 501.738281 749.285156 504.003906 C 749.285156 506.273438 751.125 508.109375 753.386719 508.109375 C 754.09375 508.109375 754.765625 507.929688 755.347656 507.609375 L 757.070312 509.980469 C 757.5625 510.660156 758.625 509.890625 758.128906 509.203125 " fill-opacity="1" fill-rule="nonzero"/><path fill="#212333" d="M 857.316406 350.917969 L 860.171875 335.78125 C 860.230469 335.457031 859.984375 335.164062 859.660156 335.164062 L 856.40625 335.164062 C 856.15625 335.164062 855.941406 335.339844 855.894531 335.589844 L 853.039062 350.726562 C 852.980469 351.046875 853.226562 351.34375 853.550781 351.34375 L 856.800781 351.34375 C 857.054688 351.34375 857.269531 351.164062 857.316406 350.917969 " fill-opacity="1" fill-rule="nonzero"/><path fill="#212333" d="M 853.828125 368.605469 L 856.683594 353.46875 C 856.746094 353.148438 856.496094 352.851562 856.171875 352.851562 L 852.921875 352.851562 C 852.671875 352.851562 852.453125 353.03125 852.410156 353.277344 L 849.550781 368.414062 C 849.492188 368.734375 849.738281 369.03125 850.0625 369.03125 L 853.316406 369.03125 C 853.566406 369.03125 853.78125 368.851562 853.828125 368.605469 " fill-opacity="1" fill-rule="nonzero"/><path fill="#dbe2e7" d="M 856.445312 301.171875 C 854.539062 298.871094 851.730469 297.554688 848.75 297.554688 L 732.75 297.554688 C 727.933594 297.554688 723.796875 300.996094 722.910156 305.730469 L 722.335938 308.824219 L 722.273438 309.144531 L 721.296875 314.417969 L 857.652344 314.417969 L 858.585938 309.410156 C 858.601562 309.316406 858.617188 309.234375 858.628906 309.144531 C 858.648438 309.039062 858.664062 308.929688 858.675781 308.824219 C 859.023438 306.074219 858.226562 303.316406 856.445312 301.171875 " fill-opacity="1" fill-rule="nonzero"/><path fill="#a8b6be" d="M 727.207031 322.746094 L 729.457031 322.746094 L 730.09375 319.335938 L 727.867188 319.335938 L 727.207031 322.746094 " fill-opacity="1" fill-rule="nonzero"/><path fill="#a8b6be" d="M 731.238281 322.691406 L 733.488281 322.691406 L 734.339844 318.070312 L 732.117188 318.070312 L 731.238281 322.691406 " fill-opacity="1" fill-rule="nonzero"/><path fill="#a8b6be" d="M 736.53125 316.792969 L 735.40625 322.703125 L 737.65625 322.703125 L 738.753906 316.792969 L 736.53125 316.792969 " fill-opacity="1" fill-rule="nonzero"/><path fill="#a8b6be" d="M 781.140625 316.683594 L 780.015625 322.597656 L 788.015625 322.597656 L 789.117188 316.683594 L 781.140625 316.683594 " fill-opacity="1" fill-rule="nonzero"/><path fill="#a8b6be" d="M 849.101562 317.613281 L 848.289062 321.957031 C 848.21875 322.328125 847.898438 322.597656 847.519531 322.597656 L 844.3125 322.597656 C 843.820312 322.597656 843.453125 322.148438 843.542969 321.667969 L 844.371094 317.320312 C 844.441406 316.953125 844.761719 316.683594 845.140625 316.683594 L 848.328125 316.683594 C 848.820312 316.683594 849.191406 317.128906 849.101562 317.613281 " fill-opacity="1" fill-rule="nonzero"/><path fill="#3e3c57" d="M 802.949219 305.027344 L 802.621094 306.945312 C 802.5625 307.289062 802.261719 307.542969 801.910156 307.542969 L 770.898438 307.542969 C 770.449219 307.542969 770.113281 307.144531 770.1875 306.703125 L 770.515625 304.789062 C 770.574219 304.441406 770.875 304.1875 771.222656 304.1875 L 802.238281 304.1875 C 802.683594 304.1875 803.023438 304.589844 802.949219 305.027344 " fill-opacity="1" fill-rule="nonzero"/><path fill="#a8b6be" d="M 825.566406 458.425781 L 825.507812 458.746094 L 698.839844 458.746094 L 698.898438 458.425781 L 825.566406 458.425781 " fill-opacity="1" fill-rule="nonzero"/><path fill="#a8b6be" d="M 820.714844 484.644531 L 820.65625 484.964844 L 693.988281 484.964844 L 694.046875 484.644531 L 820.714844 484.644531 " fill-opacity="1" fill-rule="nonzero"/><path fill="#a8b6be" d="M 790.386719 454.730469 L 794.128906 433.664062 L 793.804688 433.664062 L 790.0625 454.730469 L 790.386719 454.730469 " fill-opacity="1" fill-rule="nonzero"/><path fill="#a8b6be" d="M 785.4375 484.0625 L 789.175781 462.996094 L 788.851562 462.996094 L 785.113281 484.0625 L 785.4375 484.0625 " fill-opacity="1" fill-rule="nonzero"/><path fill="#a8b6be" d="M 847.890625 338.496094 L 847.828125 338.8125 L 720.921875 338.8125 L 720.980469 338.492188 L 847.890625 338.496094 " fill-opacity="1" fill-rule="nonzero"/><path fill="#212333" d="M 802.550781 500.808594 L 794.777344 500.808594 C 794.160156 500.808594 794.160156 501.769531 794.777344 501.769531 L 802.550781 501.769531 C 803.164062 501.769531 803.164062 500.808594 802.550781 500.808594 " fill-opacity="1" fill-rule="nonzero"/><path fill="#212333" d="M 801.433594 507.683594 L 793.65625 507.683594 C 793.042969 507.683594 793.039062 508.640625 793.65625 508.640625 L 801.433594 508.640625 C 802.046875 508.640625 802.046875 507.683594 801.433594 507.683594 " fill-opacity="1" fill-rule="nonzero"/><path fill="#212333" d="M 801.976562 504.21875 L 791.96875 504.21875 C 791.351562 504.21875 791.351562 505.179688 791.96875 505.179688 L 801.976562 505.179688 C 802.59375 505.179688 802.59375 504.21875 801.976562 504.21875 " fill-opacity="1" fill-rule="nonzero"/><path fill="#dbe2e7" d="M 755.070312 477.070312 L 735.179688 477.070312 C 734.546875 477.070312 734.066406 476.503906 734.175781 475.878906 L 734.410156 474.507812 C 734.492188 474.019531 734.917969 473.660156 735.414062 473.660156 L 755.304688 473.660156 C 755.9375 473.660156 756.417969 474.230469 756.308594 474.855469 L 756.074219 476.226562 C 755.992188 476.714844 755.566406 477.070312 755.070312 477.070312 " fill-opacity="1" fill-rule="nonzero"/><path fill="#dbe2e7" d="M 752.941406 451.285156 L 740.394531 451.285156 C 739.765625 451.285156 739.285156 450.714844 739.390625 450.089844 L 739.628906 448.722656 C 739.710938 448.230469 740.132812 447.875 740.628906 447.875 L 753.175781 447.875 C 753.808594 447.875 754.289062 448.445312 754.179688 449.066406 L 753.945312 450.4375 C 753.859375 450.925781 753.4375 451.285156 752.941406 451.285156 " fill-opacity="1" fill-rule="nonzero"/><path fill="#dbe2e7" d="M 749.628906 443.730469 L 741.554688 443.730469 C 740.921875 443.730469 740.441406 443.164062 740.550781 442.539062 L 740.785156 441.167969 C 740.867188 440.679688 741.292969 440.320312 741.789062 440.320312 L 749.863281 440.320312 C 750.496094 440.320312 750.972656 440.890625 750.867188 441.515625 L 750.632812 442.886719 C 750.546875 443.375 750.121094 443.730469 749.628906 443.730469 " fill-opacity="1" fill-rule="nonzero"/><path fill="#dbe2e7" d="M 773.875 469.800781 L 736.097656 469.800781 C 735.464844 469.800781 734.984375 469.230469 735.089844 468.609375 L 735.328125 467.234375 C 735.410156 466.746094 735.835938 466.390625 736.332031 466.390625 L 774.109375 466.390625 C 774.742188 466.390625 775.222656 466.957031 775.117188 467.582031 L 774.878906 468.953125 C 774.796875 469.441406 774.371094 469.800781 773.875 469.800781 " fill-opacity="1" fill-rule="nonzero"/><path fill="#a8b6be" d="M 839.917969 327.660156 C 838.070312 327.660156 838.066406 330.539062 839.917969 330.539062 C 841.769531 330.539062 841.773438 327.660156 839.917969 327.660156 " fill-opacity="1" fill-rule="nonzero"/><path fill="#a8b6be" d="M 839.042969 333.015625 C 837.191406 333.015625 837.1875 335.890625 839.042969 335.890625 C 840.890625 335.890625 840.894531 333.015625 839.042969 333.015625 " fill-opacity="1" fill-rule="nonzero"/><path fill="#212333" d="M 807.445312 440.882812 C 805.597656 440.882812 805.59375 443.757812 807.445312 443.757812 C 809.296875 443.757812 809.300781 440.882812 807.445312 440.882812 " fill-opacity="1" fill-rule="nonzero"/><path fill="#212333" d="M 806.570312 446.234375 C 804.71875 446.234375 804.714844 449.113281 806.570312 449.113281 C 808.417969 449.113281 808.421875 446.234375 806.570312 446.234375 " fill-opacity="1" fill-rule="nonzero"/><path fill="#dbe2e7" d="M 836.351562 400.238281 L 709.496094 400.238281 L 709.453125 400.480469 L 709.4375 400.5625 L 704.613281 426.949219 L 831.355469 427.09375 L 831.371094 427.019531 L 831.421875 426.761719 L 836.246094 400.792969 L 836.292969 400.558594 L 836.351562 400.238281 " fill-opacity="1" fill-rule="nonzero"/><path fill="#eef1f0" d="M 739.136719 331.53125 C 738.875 334.089844 736.546875 336.164062 733.933594 336.164062 C 731.324219 336.164062 729.417969 334.089844 729.675781 331.53125 C 729.9375 328.972656 732.265625 326.894531 734.878906 326.894531 C 737.492188 326.894531 739.398438 328.972656 739.136719 331.53125 " fill-opacity="1" fill-rule="nonzero"/><path fill="#212333" d="M 736.269531 331.53125 C 736.167969 332.566406 735.25 333.40625 734.222656 333.40625 C 733.191406 333.40625 732.441406 332.566406 732.542969 331.53125 C 732.644531 330.492188 733.566406 329.652344 734.59375 329.652344 C 735.625 329.652344 736.375 330.492188 736.269531 331.53125 " fill-opacity="1" fill-rule="nonzero"/><path fill="#212333" d="M 735.371094 331.195312 L 688.816406 331.195312 C 685.929688 331.195312 683.210938 329.917969 681.363281 327.695312 C 679.519531 325.46875 678.761719 322.5625 679.292969 319.71875 L 686.128906 283.09375 C 686.023438 283.070312 685.917969 283.050781 685.816406 283.027344 L 678.980469 319.660156 C 678.433594 322.597656 679.210938 325.601562 681.121094 327.898438 C 683.027344 330.195312 685.832031 331.515625 688.816406 331.515625 L 735.347656 331.515625 C 735.355469 331.40625 735.363281 331.300781 735.371094 331.195312 " fill-opacity="1" fill-rule="nonzero"/><path fill="#dbe2e7" d="M 695.9375 299.191406 L 676.445312 299.191406 C 672.078125 299.191406 668.792969 295.210938 669.617188 290.917969 L 672.550781 275.664062 C 673.183594 272.386719 676.046875 270.019531 679.378906 270.019531 L 698.875 270.019531 C 703.238281 270.019531 706.523438 274 705.699219 278.292969 L 702.765625 293.550781 C 702.136719 296.824219 699.273438 299.191406 695.9375 299.191406 " fill-opacity="1" fill-rule="nonzero"/><path fill="#ffffff" d="M 696.683594 282.574219 C 696.652344 278.007812 693.238281 274.527344 688.46875 274.527344 C 683.167969 274.527344 678.722656 277.855469 677.382812 284.121094 C 676.679688 287.429688 678.117188 290.402344 680.433594 292.125 C 681.625 293.007812 683.097656 293.566406 684.761719 293.695312 L 684.761719 293.722656 L 696.683594 293.722656 L 696.683594 282.574219 " fill-opacity="1" fill-rule="nonzero"/><path fill="#212333" d="M 689.382812 283.898438 C 690.015625 283.339844 690.332031 282.441406 690.035156 281.480469 C 689.726562 280.484375 688.804688 279.769531 687.773438 279.914062 C 686.644531 280.070312 685.640625 281.0625 685.640625 282.207031 C 685.640625 282.886719 685.9375 283.492188 686.410156 283.90625 C 685.398438 283.902344 684.398438 284.046875 683.558594 284.675781 C 682.726562 285.300781 682.222656 286.1875 681.835938 287.132812 C 681.613281 287.675781 681.824219 288.304688 682.335938 288.597656 C 683.664062 289.355469 685.246094 289.785156 686.996094 289.785156 C 688.726562 289.785156 690.425781 289.363281 691.980469 288.613281 C 692.496094 288.367188 692.75 287.765625 692.578125 287.21875 C 692.066406 285.597656 691.039062 284.117188 689.382812 283.898438 " fill-opacity="1" fill-rule="nonzero"/><path fill="#eef1f0" d="M 887.605469 408.035156 L 885.058594 421.714844 C 884.476562 424.832031 881.761719 427.09375 878.589844 427.09375 L 748.898438 427.09375 C 744.789062 427.09375 741.683594 423.367188 742.421875 419.320312 L 744.925781 405.640625 C 745.5 402.515625 748.222656 400.242188 751.398438 400.242188 L 881.136719 400.242188 C 885.253906 400.242188 888.359375 403.984375 887.605469 408.035156 " fill-opacity="1" fill-rule="nonzero"/><path fill="#c86a3c" d="M 775.828125 404.148438 C 775.773438 404.144531 775.726562 404.144531 775.671875 404.144531 L 764.554688 404.144531 C 763.992188 404.144531 763.449219 404.242188 762.9375 404.429688 C 761.378906 404.988281 760.179688 406.34375 759.863281 408.054688 L 758.257812 416.773438 C 757.710938 419.707031 759.964844 422.414062 762.949219 422.414062 L 773.144531 422.414062 C 775.445312 422.414062 777.417969 420.773438 777.835938 418.507812 L 779.613281 408.878906 C 780.058594 406.46875 778.253906 404.238281 775.828125 404.148438 " fill-opacity="1" fill-rule="nonzero"/><path fill="#ff8e61" d="M 871.898438 417.253906 L 869.800781 416 C 869.660156 415.917969 869.484375 415.910156 869.328125 415.980469 L 866.957031 417.054688 C 866.5625 417.234375 866.160156 416.902344 866.28125 416.492188 L 867 414.042969 C 867.046875 413.878906 867.011719 413.710938 866.90625 413.589844 L 865.304688 411.769531 C 865.039062 411.464844 865.265625 410.964844 865.6875 410.921875 L 868.230469 410.660156 C 868.398438 410.644531 868.550781 410.546875 868.644531 410.402344 L 870.027344 408.199219 C 870.257812 407.832031 870.792969 407.855469 870.9375 408.238281 L 871.789062 410.527344 C 871.84375 410.679688 871.976562 410.789062 872.140625 410.820312 L 874.59375 411.28125 C 875.003906 411.359375 875.109375 411.871094 874.773438 412.152344 L 872.761719 413.828125 C 872.628906 413.9375 872.554688 414.101562 872.5625 414.269531 L 872.695312 416.753906 C 872.71875 417.167969 872.246094 417.464844 871.898438 417.253906 " fill-opacity="1" fill-rule="nonzero"/><path fill="#a8b6be" d="M 808.695312 412.578125 L 785.289062 412.578125 C 784.660156 412.578125 784.179688 412.007812 784.285156 411.382812 L 784.523438 410.011719 C 784.605469 409.523438 785.027344 409.164062 785.523438 409.164062 L 808.929688 409.164062 C 809.5625 409.164062 810.042969 409.734375 809.9375 410.359375 L 809.699219 411.730469 C 809.613281 412.21875 809.191406 412.578125 808.695312 412.578125 " fill-opacity="1" fill-rule="nonzero"/><path fill="#a8b6be" d="M 811.25 419.714844 L 784.011719 419.714844 C 783.378906 419.714844 782.898438 419.144531 783.007812 418.523438 L 783.242188 417.152344 C 783.328125 416.664062 783.75 416.304688 784.246094 416.304688 L 811.484375 416.304688 C 812.117188 416.304688 812.597656 416.875 812.488281 417.5 L 812.253906 418.867188 C 812.171875 419.359375 811.746094 419.714844 811.25 419.714844 " fill-opacity="1" fill-rule="nonzero"/><path fill="#212333" d="M 775.671875 404.144531 L 764.554688 404.144531 C 763.992188 404.144531 763.449219 404.242188 762.9375 404.429688 C 764.859375 407.640625 766.679688 410.902344 768.40625 414.222656 C 768.519531 414.4375 768.835938 414.417969 768.960938 414.222656 C 771.066406 410.738281 773.355469 407.375 775.828125 404.148438 C 775.773438 404.144531 775.726562 404.144531 775.671875 404.144531 " fill-opacity="1" fill-rule="nonzero"/><path fill="#4c8b7b" d="M 732.613281 439.988281 C 729.140625 440.082031 727.726562 440.941406 724.628906 442.226562 C 721.402344 443.5625 717.464844 440.824219 714.296875 440.265625 L 713.273438 445.824219 C 714.761719 445.5 716.332031 445.578125 717.804688 446.125 C 719.890625 446.898438 721.59375 448.566406 723.964844 448.183594 C 726.050781 447.847656 727.699219 446.3125 729.722656 445.777344 C 730.851562 445.472656 732.074219 445.390625 733.214844 445.601562 L 734.199219 440.265625 C 734.214844 440.167969 734.230469 440.070312 734.238281 439.972656 C 733.722656 439.964844 733.179688 439.972656 732.613281 439.988281 " fill-opacity="1" fill-rule="nonzero"/><path fill="#ff8e61" d="M 718.933594 462.207031 L 715.777344 462.207031 C 712.863281 462.207031 710.375 464.285156 709.847656 467.144531 L 709.304688 470.09375 C 710.617188 470.886719 712.191406 471.066406 713.691406 470.730469 C 717.542969 469.871094 720.285156 466.085938 718.933594 462.207031 " fill-opacity="1" fill-rule="nonzero"/><path fill="#ff8e61" d="M 729.589844 466.308594 C 729.0625 466.425781 728.519531 466.664062 728.136719 466.789062 C 725.515625 467.613281 723.042969 468.902344 720.863281 470.578125 C 717.421875 473.222656 714.847656 476.777344 713.3125 480.777344 C 713.710938 480.859375 714.125 480.90625 714.550781 480.90625 L 718.085938 480.90625 C 720.363281 475.78125 724.191406 471.304688 729.679688 470.035156 L 729.808594 469.335938 C 730.003906 468.277344 729.914062 467.246094 729.589844 466.308594 " fill-opacity="1" fill-rule="nonzero"/><path fill="#a8b6be" d="M 851.027344 424.148438 L 854.765625 403.082031 L 854.441406 403.082031 L 850.703125 424.148438 L 851.027344 424.148438 " fill-opacity="1" fill-rule="nonzero"/><path fill="#c8512c" d="M 872.847656 394.613281 C 872.5 393.078125 870.570312 393.402344 869.550781 394.40625 C 869.425781 393.835938 868.917969 393.515625 868.328125 393.449219 C 867.511719 393.355469 866.589844 393.710938 866.308594 394.425781 C 865.734375 395.898438 866.417969 396.585938 867.273438 397.488281 C 867.714844 397.957031 868.195312 398.429688 868.726562 398.800781 C 868.753906 398.820312 868.792969 398.835938 868.800781 398.828125 C 869.8125 398.207031 871.113281 397.53125 872 396.757812 C 872.664062 396.175781 873.03125 395.421875 872.847656 394.613281 " fill-opacity="1" fill-rule="nonzero"/><path fill="#c8512c" d="M 882.535156 394.722656 C 882.191406 393.1875 880.257812 393.507812 879.238281 394.511719 C 879.117188 393.945312 878.609375 393.621094 878.015625 393.554688 C 877.203125 393.460938 876.28125 393.816406 876 394.535156 C 875.421875 396.003906 876.109375 396.691406 876.960938 397.59375 C 877.40625 398.0625 877.886719 398.535156 878.414062 398.90625 C 878.445312 398.925781 878.480469 398.941406 878.488281 398.9375 C 879.5 398.316406 880.800781 397.640625 881.691406 396.863281 C 882.351562 396.285156 882.71875 395.527344 882.535156 394.722656 " fill-opacity="1" fill-rule="nonzero"/><path fill="#798d99" d="M 583.757812 492.703125 C 582.828125 492.832031 581.890625 492.980469 580.957031 493.035156 C 580.160156 493.078125 579.195312 493.035156 578.582031 492.40625 C 577.753906 491.558594 578.097656 490.078125 578.371094 488.960938 C 578.632812 487.886719 579.015625 486.863281 579.476562 485.882812 C 584.882812 484.496094 590.320312 483.335938 595.777344 482.414062 C 595.777344 483.574219 595.761719 484.757812 595.644531 485.917969 C 595.378906 488.566406 593.636719 490.761719 591.390625 491.285156 C 588.859375 491.875 586.3125 492.351562 583.757812 492.703125 " fill-opacity="1" fill-rule="nonzero"/><path fill="#798d99" d="M 664.628906 486.671875 C 662.386719 486.148438 662.183594 485.109375 661.914062 482.464844 C 661.796875 481.304688 661.648438 480.121094 661.648438 478.960938 C 665.550781 479.589844 665.53125 479.519531 668.015625 480.152344 C 668.28125 481.269531 669.53125 485.609375 668.703125 486.457031 C 668.085938 487.085938 667.164062 487.261719 664.628906 486.671875 " fill-opacity="1" fill-rule="nonzero"/><path fill="#b9643c" d="M 728.851562 389.433594 C 728.125 388.542969 722.039062 388.195312 720.933594 387.917969 C 720.894531 387.910156 720.851562 387.898438 720.808594 387.886719 C 720.917969 387.746094 721.019531 387.597656 721.109375 387.441406 C 721.507812 386.753906 721.863281 385.527344 721.292969 384.816406 C 720.703125 384.082031 719.472656 384.8125 718.8125 385.039062 C 717.433594 385.519531 716.046875 385.996094 714.664062 386.476562 C 713.28125 386.953125 711.898438 387.433594 710.511719 387.914062 C 709.328125 388.324219 708.082031 388.664062 706.964844 389.234375 C 705.484375 389.984375 705.257812 389.765625 704.46875 391.1875 C 703.898438 392.019531 701.550781 397.351562 701.183594 398.316406 C 700.820312 399.277344 700.3125 400.289062 700.164062 401.3125 C 700.046875 402.089844 700.234375 402.734375 700.695312 403.359375 C 701.359375 404.265625 700.546875 411.65625 700.546875 411.65625 C 700.546875 411.65625 704.058594 403.824219 704.652344 402.898438 C 704.964844 402.585938 705.308594 402.300781 705.6875 402.070312 C 706.679688 401.464844 708.121094 401.082031 709.234375 400.992188 C 712.1875 400.753906 717.703125 399.171875 718.628906 398.734375 C 720.628906 397.789062 722.25 396.878906 724.058594 395.453125 C 725.816406 394.066406 730.070312 390.929688 728.851562 389.433594 " fill-opacity="1" fill-rule="nonzero"/><path fill="#b9643c" d="M 718.820312 382.464844 C 718.019531 382.167969 716.949219 382.753906 716.230469 383.066406 C 714.984375 383.617188 713.800781 384.246094 712.464844 384.558594 C 711.203125 384.859375 709.863281 384.921875 708.628906 385.324219 C 706.832031 385.90625 706.011719 387.769531 705.28125 389.460938 C 704.414062 390.953125 703.675781 392.84375 703.015625 394.933594 C 703.21875 395.324219 703.632812 394.238281 703.753906 394.671875 C 703.832031 395.253906 703.910156 395.835938 703.988281 396.421875 C 704.011719 396.988281 703.945312 397.53125 703.789062 398.050781 C 704.996094 397.777344 706.195312 397.21875 706.832031 396.800781 C 709.738281 394.898438 709.101562 390.0625 711.707031 387.964844 C 712.832031 387.0625 718.335938 386.449219 719.339844 384.183594 C 719.605469 383.589844 719.53125 382.726562 718.820312 382.464844 " fill-opacity="1" fill-rule="nonzero"/><path fill="#542814" d="M 729.003906 390.394531 C 728.367188 390.410156 727.777344 390.320312 727.230469 390.144531 C 727.703125 389.777344 728.164062 389.394531 728.601562 388.980469 C 728.75 388.839844 728.523438 388.613281 728.375 388.753906 C 727.898438 389.203125 727.398438 389.617188 726.882812 390.011719 C 725.945312 389.640625 725.128906 389.023438 724.429688 388.265625 C 724.640625 388.113281 724.855469 387.957031 725.066406 387.792969 C 725.226562 387.664062 725 387.441406 724.839844 387.566406 C 724.636719 387.726562 724.425781 387.878906 724.21875 388.027344 C 723.636719 387.363281 723.125 386.613281 722.679688 385.847656 C 722.804688 385.769531 722.933594 385.703125 723.054688 385.625 C 723.226562 385.515625 723.066406 385.238281 722.890625 385.347656 C 722.769531 385.425781 722.644531 385.492188 722.523438 385.566406 C 722.394531 385.339844 722.269531 385.109375 722.152344 384.882812 C 722.058594 384.699219 721.78125 384.863281 721.875 385.042969 C 721.996094 385.273438 722.121094 385.503906 722.25 385.730469 C 720.394531 386.84375 718.46875 387.820312 716.460938 388.636719 C 716.273438 388.710938 716.355469 389.023438 716.546875 388.945312 C 718.574219 388.121094 720.527344 387.136719 722.40625 386.007812 C 722.859375 386.785156 723.371094 387.539062 723.960938 388.214844 C 722.046875 389.546875 719.910156 390.5 717.628906 391.035156 C 717.429688 391.082031 717.511719 391.390625 717.714844 391.34375 C 720.046875 390.796875 722.21875 389.816406 724.175781 388.453125 C 724.871094 389.203125 725.667969 389.832031 726.582031 390.234375 C 725.871094 390.753906 725.132812 391.234375 724.378906 391.691406 C 722.964844 392.542969 721.410156 393.679688 719.742188 393.890625 C 719.542969 393.914062 719.539062 394.234375 719.742188 394.210938 C 721.410156 394 722.886719 392.953125 724.300781 392.109375 C 725.203125 391.570312 726.089844 391 726.933594 390.371094 C 727.570312 390.601562 728.253906 390.734375 729.003906 390.714844 C 729.210938 390.707031 729.210938 390.390625 729.003906 390.394531 " fill-opacity="1" fill-rule="nonzero"/><path fill="#b9643c" d="M 705.929688 400.679688 C 704.558594 399.695312 703.578125 394.84375 703.164062 395.078125 C 702.882812 395.234375 697.363281 401.242188 694.289062 404.761719 C 693.425781 405.753906 692.53125 406.777344 691.664062 407.773438 C 692.074219 409.53125 693.078125 411.113281 694.039062 412.617188 C 695.007812 414.144531 696.050781 415.632812 697.269531 416.972656 C 697.355469 417.066406 697.4375 417.160156 697.527344 417.25 C 698.699219 415.128906 699.839844 413.042969 700.886719 411.089844 C 703.445312 406.320312 705.449219 402.375 706.007812 400.871094 C 706.039062 400.796875 705.988281 400.722656 705.929688 400.679688 " fill-opacity="1" fill-rule="nonzero"/><path fill="#4c8b7b" d="M 775.480469 346.003906 C 774.660156 350.464844 770.753906 353.839844 766.0625 353.839844 C 760.90625 353.839844 756.707031 349.769531 756.488281 344.667969 L 734.667969 344.667969 C 730.511719 344.667969 726.941406 347.589844 726.09375 351.644531 C 726.078125 351.710938 726.066406 351.777344 726.054688 351.847656 L 724.894531 358.140625 L 720.148438 383.863281 C 719.152344 389.25 723.289062 394.222656 728.765625 394.222656 L 764.917969 394.222656 C 769.144531 394.222656 772.765625 391.203125 773.535156 387.046875 L 774.402344 382.339844 L 775.527344 376.246094 L 779.445312 355.03125 C 780.125 351.339844 778.398438 347.839844 775.480469 346.003906 " fill-opacity="1" fill-rule="nonzero"/><path fill="#c8512c" d="M 770.3125 344.3125 C 769.863281 342.332031 767.378906 342.75 766.066406 344.042969 C 765.90625 343.308594 765.253906 342.894531 764.492188 342.808594 C 763.441406 342.6875 762.257812 343.144531 761.894531 344.066406 C 761.152344 345.960938 762.035156 346.847656 763.132812 348.007812 C 763.703125 348.609375 764.320312 349.21875 765.003906 349.695312 C 765.042969 349.726562 765.089844 349.742188 765.101562 349.734375 C 766.40625 348.9375 768.078125 348.066406 769.222656 347.066406 C 770.074219 346.320312 770.546875 345.347656 770.3125 344.3125 " fill-opacity="1" fill-rule="nonzero"/><path fill="#dbe2e7" d="M 785.476562 367.320312 L 805.367188 367.320312 C 805.863281 367.320312 806.289062 366.960938 806.371094 366.472656 L 806.609375 365.101562 C 806.714844 364.476562 806.234375 363.910156 805.605469 363.910156 L 785.710938 363.910156 C 785.214844 363.910156 784.792969 364.265625 784.707031 364.757812 L 784.472656 366.125 C 784.363281 366.75 784.84375 367.320312 785.476562 367.320312 " fill-opacity="1" fill-rule="nonzero"/><path fill="#dbe2e7" d="M 794.851562 379.574219 L 783.261719 379.574219 C 782.765625 379.574219 782.34375 379.929688 782.257812 380.421875 L 782.023438 381.792969 C 781.914062 382.414062 782.394531 382.984375 783.027344 382.984375 L 794.613281 382.984375 C 795.109375 382.984375 795.535156 382.625 795.617188 382.136719 L 795.855469 380.765625 C 795.960938 380.144531 795.480469 379.574219 794.851562 379.574219 " fill-opacity="1" fill-rule="nonzero"/><path fill="#dbe2e7" d="M 824.410156 356.636719 L 786.628906 356.636719 C 786.132812 356.636719 785.707031 356.992188 785.625 357.480469 L 785.390625 358.855469 C 785.28125 359.476562 785.761719 360.046875 786.394531 360.046875 L 824.171875 360.046875 C 824.667969 360.046875 825.09375 359.6875 825.175781 359.199219 L 825.414062 357.828125 C 825.519531 357.207031 825.039062 356.636719 824.410156 356.636719 " fill-opacity="1" fill-rule="nonzero"/><path fill="#dbe2e7" d="M 822.492188 371.5 L 784.714844 371.5 C 784.21875 371.5 783.792969 371.859375 783.710938 372.347656 L 783.472656 373.71875 C 783.367188 374.34375 783.847656 374.910156 784.476562 374.910156 L 822.257812 374.910156 C 822.753906 374.910156 823.175781 374.554688 823.261719 374.066406 L 823.496094 372.695312 C 823.601562 372.070312 823.125 371.5 822.492188 371.5 " fill-opacity="1" fill-rule="nonzero"/><path fill="#212333" d="M 771.828125 379.59375 C 766.453125 375.105469 759.609375 376.46875 753.191406 376.777344 C 749.457031 376.953125 745.042969 376.78125 742.976562 373.117188 C 741.335938 370.214844 741.605469 366.726562 741.550781 363.515625 C 741.5 360.351562 741.125 356.941406 738.761719 354.59375 C 736.574219 352.425781 733.308594 351.5 730.304688 351.34375 C 728.886719 351.269531 727.476562 351.375 726.09375 351.640625 C 726.078125 351.710938 726.066406 351.777344 726.054688 351.847656 L 724.894531 358.140625 L 720.148438 383.859375 C 719.152344 389.25 723.292969 394.222656 728.765625 394.222656 L 764.917969 394.222656 C 769.144531 394.222656 772.765625 391.203125 773.535156 387.042969 L 774.402344 382.339844 C 773.625 381.292969 772.746094 380.359375 771.828125 379.59375 " fill-opacity="1" fill-rule="nonzero"/><path fill="#542814" d="M 717.820312 385.539062 C 717.339844 386.589844 716.210938 386.941406 715.246094 387.414062 C 714.472656 387.792969 713.816406 388.292969 713.234375 388.925781 C 712.542969 389.679688 711.980469 390.535156 711.328125 391.324219 C 710.503906 392.324219 709.53125 393.117188 708.382812 393.71875 C 708.199219 393.8125 708.328125 394.109375 708.511719 394.011719 C 709.480469 393.503906 710.355469 392.867188 711.105469 392.066406 C 711.914062 391.199219 712.546875 390.1875 713.328125 389.296875 C 714.175781 388.332031 715.144531 387.832031 716.277344 387.285156 C 717.054688 386.90625 717.746094 386.46875 718.117188 385.65625 C 718.203125 385.46875 717.90625 385.351562 717.820312 385.539062 " fill-opacity="1" fill-rule="nonzero"/></svg>